<svg xmlns="http://www.w3.org/2000/svg" width="19.372" height="21.116" viewBox="0 0 19.372 21.116">
  <g id="tax-daijiao-line-svgrepo-com" transform="translate(-109.52 -72.85)" opacity="0.49">
    <path id="Path_10635" data-name="Path 10635" d="M124.49,84.276v1.756h-6.168v1.314a3.056,3.056,0,0,0,.314,1.332h-.927L113.02,85.6a2.259,2.259,0,1,0-2.464,3.787l5.749,3.7h8.184v.881h4.4v-9.69Zm-7.666,7.049L111.51,87.9a.5.5,0,0,1-.228-.418.5.5,0,0,1,.771-.416l5.129,3.372h5.555V88.678h-1.322a1.335,1.335,0,0,1-1.255-.885h4.33v3.532Zm10.308.881h-.881V86.037h.881Zm-14.658-9.03a5.722,5.722,0,1,1,9.939,0l1.528.875a7.483,7.483,0,1,0-12.995,0Z" fill="#03a197"/>
    <path id="Path_10636" data-name="Path 10636" d="M401.97,262.64v3.867l3.088,3.06,1.24-1.251-2.567-2.544V262.64Z" transform="translate(-285.409 -185.22)" fill="#03a197"/>
  </g>
</svg>
